<svg width="500" height="500" viewBox="0 0 500 500" fill="none" xmlns="http://www.w3.org/2000/svg">
  <!-- Background circle -->
  <circle cx="250" cy="250" r="200" fill="#F5F7FF" opacity="0.6"/>
  
  <!-- Person -->
  <g transform="translate(120, 80)">
    <!-- Head -->
    <ellipse cx="135" cy="100" rx="50" ry="60" fill="#30235B"/>
    
    <!-- Face -->
    <path d="M115 120 Q135 140 155 120" stroke="#FFB6C1" stroke-width="4" fill="none"/>
    
    <!-- Hair -->
    <path d="M85 100 Q85 50 135 50 Q185 50 185 100 L185 110 L85 110 Z" fill="#30235B"/>
    <rect x="85" y="100" width="100" height="20" fill="#30235B"/>
    
    <!-- Body -->
    <path d="M110 160 L100 260 L170 260 L160 160 Z" fill="#FFB6C1"/>
    <rect x="110" y="160" width="50" height="25" fill="#FFB6C1"/>
    
    <!-- Arms -->
    <path d="M110 160 L60 200 L70 210 L115 180 Z" fill="#FFB6C1"/>
    <path d="M160 160 L210 200 L200 210 L155 180 Z" fill="#FFB6C1"/>
    
    <!-- Legs -->
    <rect x="105" y="260" width="20" height="100" fill="#30235B"/>
    <rect x="145" y="260" width="20" height="100" fill="#30235B"/>
    
    <!-- Shoes -->
    <ellipse cx="115" cy="360" rx="15" ry="5" fill="#30235B"/>
    <ellipse cx="155" cy="360" rx="15" ry="5" fill="#30235B"/>
  </g>
  
  <!-- Briefcase -->
  <g transform="translate(130, 220)">
    <rect x="0" y="0" width="100" height="70" rx="5" fill="#3F51B5"/>
    <rect x="40" y="-15" width="20" height="15" fill="#3F51B5"/>
    <circle cx="50" cy="35" r="10" fill="white"/>
  </g>
  
  <!-- Phone icon -->
  <g transform="translate(360, 200)">
    <circle cx="25" cy="25" r="25" fill="white" stroke="#3F51B5" stroke-width="2"/>
    <path d="M18 18 C18 16 20 16 22 16 C24 16 26 16 26 18 L26 32 C26 34 24 34 22 34 C20 34 18 34 18 32 Z" fill="#3F51B5"/>
    <path d="M26 20 C26 18 28 18 30 18 C32 18 34 18 34 20 L34 30 C34 32 32 32 30 32 C28 32 26 32 26 30 Z" fill="#3F51B5"/>
  </g>
</svg> 