<svg xmlns="http://www.w3.org/2000/svg" width="50" height="50" viewBox="0 0 50 50" fill="none">
  <path d="M25 42C34.3888 42 42 34.3888 42 25C42 15.6112 34.3888 8 25 8C15.6112 8 8 15.6112 8 25C8 34.3888 15.6112 42 25 42Z" stroke="#4A4AFF" stroke-width="2.5" />
  <path d="M12 25H38" stroke="#4A4AFF" stroke-width="2.5" stroke-linecap="round" />
  <path d="M25 8C29.7348 8 34.2163 9.79107 37.5355 13.1102C40.8548 16.4295 42.6458 20.911 42.6458 25.6458C42.6458 30.3806 40.8548 34.8621 37.5355 38.1814C34.2163 41.5005 29.7348 43.2916 25 43.2916" stroke="#4A4AFF" stroke-width="2.5" stroke-linecap="round" />
  <path d="M25 8C20.2652 8 15.7837 9.79107 12.4645 13.1102C9.14518 16.4295 7.35411 20.911 7.35411 25.6458C7.35411 30.3806 9.14518 34.8621 12.4645 38.1814C15.7837 41.5005 20.2652 43.2916 25 43.2916" stroke="#4A4AFF" stroke-width="2.5" stroke-linecap="round" />
</svg> 